<svg width="173" height="174" viewBox="0 0 173 174" fill="none" xmlns="http://www.w3.org/2000/svg">
<path d="M102.283 173.17C109.463 173.17 114.306 168.161 117.229 160.479L170.499 20.957C171.751 17.7842 172.336 14.9453 172.336 12.4404C172.336 5.42676 167.744 0.834473 160.73 0.834473C158.142 0.834473 155.303 1.41895 152.213 2.58789L12.4409 56.0254C5.09326 58.7808 0 63.707 0 70.8877C0 79.1538 5.84473 82.9946 14.1108 85.583L50.0977 96.7715C56.9443 98.9424 61.2861 98.9424 66.5464 94.2666L158.225 11.1045C159.561 9.93555 161.231 10.019 162.149 11.021C163.068 12.0229 163.235 13.6929 162.066 14.9453L78.9873 106.457C74.729 111.133 74.3115 116.56 76.3154 122.989L87.4204 158.809C90.0088 167.159 93.9331 173.17 102.283 173.17Z" fill="white"/>
</svg>
