<svg width="174" height="172" viewBox="0 0 174 172" fill="none" xmlns="http://www.w3.org/2000/svg">
<path d="M87 161.055C88.4658 161.055 89.8545 160.978 91.3975 160.824L95.1006 167.999C96.2578 170.545 99.0352 172.01 102.121 171.548C104.898 171.008 106.981 168.77 107.367 165.916L108.524 157.815C111.302 157.121 114.079 156.041 116.702 154.961L122.643 160.284C124.726 162.29 127.734 162.676 130.512 161.133C132.98 159.667 134.061 156.889 133.521 154.112L131.746 146.166C134.061 144.468 136.375 142.617 138.612 140.534L146.019 143.697C148.719 144.777 151.496 144.083 153.579 141.691C155.276 139.608 155.585 136.676 154.042 134.131L149.722 127.187C151.342 124.796 152.73 122.25 154.042 119.627L162.143 120.012C164.997 120.167 167.697 118.469 168.546 115.692C169.549 112.992 168.546 109.983 166.386 108.286L159.982 103.271C160.677 100.494 161.294 97.5622 161.603 94.7077L169.24 92.1618C172.095 91.2361 173.792 88.8445 173.792 85.99C173.792 83.0583 172.095 80.6667 169.24 79.8181L161.603 77.2722C161.294 74.3406 160.677 71.5632 159.982 68.6316L166.309 63.6169C168.546 61.9968 169.472 59.0652 168.546 56.4421C167.697 53.5876 164.997 51.8904 162.143 52.0447L154.042 52.3533C152.73 49.6531 151.342 47.1843 149.722 44.7156L154.042 37.8493C155.508 35.4577 155.276 32.3718 153.579 30.3659C151.496 27.9743 148.719 27.28 145.941 28.3601L138.458 31.3689C136.375 29.4402 134.061 27.5886 131.746 25.8142L133.521 17.8679C134.061 15.0134 132.903 12.2361 130.357 10.8474C127.734 9.38157 124.648 9.69017 122.643 11.696L116.702 17.0964C114.079 15.9392 111.225 14.9363 108.524 14.0876L107.367 6.14134C106.981 3.28685 104.898 1.04954 101.967 0.509503C99.0352 0.0466129 96.335 1.43528 95.1777 3.90403L91.3975 11.0788C89.8545 11.0017 88.4658 11.0017 87 11.0017C85.5342 11.0017 84.0684 11.0017 82.6025 11.0788L78.8223 3.90403C77.5879 1.43528 74.8877 0.0466129 71.8789 0.509503C69.1016 1.04954 66.9414 3.28685 66.5557 6.14134L65.4756 14.0876C62.6982 14.9363 59.9209 15.9392 57.2979 17.0964L51.3574 11.7732C49.2744 9.69017 46.2656 9.38157 43.5654 10.8474C41.0967 12.2361 39.9395 15.0134 40.4795 17.9451L42.1768 25.8142C39.8623 27.5886 37.5479 29.4402 35.4648 31.3689L27.9814 28.3601C25.2041 27.28 22.4268 27.9743 20.4209 30.3659C18.7236 32.3718 18.415 35.4577 19.8809 37.8493L24.2012 44.7156C22.6582 47.1843 21.2695 49.6531 19.958 52.3533L11.7803 52.0447C8.92578 51.8904 6.30273 53.5876 5.37695 56.365C4.45117 59.0652 5.37695 61.9968 7.53711 63.6169L13.9404 68.7087C13.3232 71.5632 12.7061 74.3406 12.3975 77.2722L4.75977 79.8181C1.90527 80.6667 0.130859 83.0583 0.130859 85.99C0.130859 88.8445 1.90527 91.2361 4.75977 92.1618L12.3975 94.7077C12.7061 97.5622 13.3232 100.494 13.9404 103.271L7.61426 108.286C5.37695 109.983 4.45117 112.992 5.37695 115.615C6.30273 118.469 8.92578 120.167 11.8574 120.012L19.958 119.627C21.2695 122.25 22.6582 124.796 24.2012 127.187L19.8809 134.208C18.415 136.676 18.6465 139.608 20.4209 141.691C22.4268 144.083 25.2041 144.777 28.0586 143.62L35.3877 140.534C37.5479 142.617 39.8623 144.468 42.1768 146.166L40.4795 154.112C39.9395 156.889 41.0195 159.667 43.5654 161.21C46.1885 162.676 49.1973 162.29 51.2803 160.361L57.2207 154.961C59.9209 156.041 62.6211 157.121 65.4756 157.892L66.5557 165.916C66.9414 168.77 69.1016 171.008 71.9561 171.548C74.8877 172.01 77.5879 170.545 78.8223 167.999L82.6025 160.824C84.0684 160.978 85.5342 161.055 87 161.055ZM108.139 77.2722C103.973 67.2429 95.1777 61.9197 85.9199 61.9197C84.917 61.9197 83.7598 61.9968 81.9854 62.3825L65.4756 33.9148C72.0332 31.1374 79.2852 29.5945 86.9229 29.5945C115.082 29.5945 137.378 50.1931 141.39 77.2722H108.139ZM31.916 85.99C31.916 68.6316 39.2451 53.2019 51.126 42.864L67.5586 71.1775C63.9326 75.9607 62.2354 81.0525 62.2354 86.0671C62.2354 90.9275 63.7783 95.4792 67.5586 100.417L50.5088 128.576C39.0137 118.315 31.916 103.117 31.916 85.99ZM77.2793 86.0671C77.2793 81.2068 81.291 77.5036 85.9199 77.5036C90.7031 77.5036 94.5605 81.2068 94.5605 86.0671C94.5605 90.7732 90.7031 94.7849 85.9199 94.7849C81.3682 94.7849 77.2793 90.7732 77.2793 86.0671ZM86.9229 142.385C78.9766 142.385 71.416 140.688 64.627 137.757L81.7539 109.675C83.5283 110.06 84.7627 110.06 85.9199 110.06C95.2549 110.06 103.896 104.737 108.062 94.4763H141.467C137.532 121.71 115.236 142.385 86.9229 142.385Z" fill="white"/>
</svg>
