<svg width="83" height="82" viewBox="0 0 83 82" fill="none" xmlns="http://www.w3.org/2000/svg">
<path d="M6.91016 39.2416H29.4688C35.5273 39.2416 39.0938 35.7181 39.0938 29.6166V8.17517C39.0938 4.47986 36.2578 1.85876 32.5625 1.85876C28.8672 1.85876 26.0312 4.43689 26.0312 8.17517V9.72205L26.9766 18.1439L21.0898 11.9135L11.7656 2.5033C10.5195 1.2572 8.88672 0.65564 7.125 0.65564C3.12891 0.65564 0.378906 3.49158 0.378906 7.48767C0.378906 9.20642 1.15234 10.7103 2.35547 11.9135L11.7656 21.3236L18.0391 27.1674L9.40234 26.222H6.91016C3.21484 26.222 0.636719 29.015 0.636719 32.7103C0.636719 36.4916 3.21484 39.2416 6.91016 39.2416ZM50.3086 79.976C54.0039 79.976 56.8398 77.3978 56.8398 73.7025V71.9838L55.8945 63.5619L61.7812 69.7924L71.1914 79.2885C72.4375 80.5345 74.1133 81.1791 75.832 81.1791C79.8281 81.1791 82.5781 78.3002 82.5781 74.3041C82.5781 72.5853 81.8047 71.0814 80.6016 69.8783L71.1055 60.3822L64.832 54.5385L73.4688 55.4838H76.0898C79.7852 55.4838 82.4062 52.6908 82.4062 48.9955C82.4062 45.2142 79.8281 42.4642 76.0898 42.4642H53.4453C47.3438 42.4642 43.7773 45.9877 43.7773 52.0892V73.7025C43.7773 77.3978 46.6133 79.976 50.3086 79.976Z" fill="white"/>
</svg>
